<mxfile host="app.diagrams.net" modified="2021-08-11T22:20:14.367Z" agent="5.0 (Windows NT 10.0; Win64; x64) AppleWebKit/537.36 (KHTML, like Gecko) Chrome/92.0.4515.131 Safari/537.36" etag="x4mdh2CqE6icPRvKirYa" version="14.9.6" type="github">
  <diagram name="Page-1" id="4fc8d65c-f3f6-feb3-4d1c-02f59d9f9886">
    <mxGraphModel dx="1452" dy="519" grid="1" gridSize="10" guides="1" tooltips="1" connect="1" arrows="1" fold="1" page="1" pageScale="1" pageWidth="826" pageHeight="1169" background="none" math="0" shadow="0">
      <root>
        <mxCell id="0" />
        <mxCell id="1" parent="0" />
        <mxCell id="8" value="Improve healthcare system" style="whiteSpace=wrap;strokeWidth=3" parent="1" vertex="1">
          <mxGeometry x="680" y="250" width="120" height="60" as="geometry" />
        </mxCell>
        <mxCell id="9" value="" style="edgeStyle=none;strokeWidth=4" parent="1" target="8" edge="1">
          <mxGeometry width="100" height="100" relative="1" as="geometry">
            <mxPoint x="230" y="280" as="sourcePoint" />
            <mxPoint x="240" y="230" as="targetPoint" />
          </mxGeometry>
        </mxCell>
        <mxCell id="143" value="Environment" style="whiteSpace=wrap;strokeWidth=2" parent="1" vertex="1">
          <mxGeometry x="260" y="109.99999999999994" width="120" height="60" as="geometry" />
        </mxCell>
        <mxCell id="144" value="" style="whiteSpace=wrap;strokeWidth=2" parent="1" vertex="1">
          <mxGeometry x="260" y="399.99999999999994" width="120" height="60" as="geometry" />
        </mxCell>
        <mxCell id="145" value="" style="edgeStyle=none;exitX=0.5;exitY=1;strokeWidth=3" parent="1" source="143" edge="1">
          <mxGeometry width="100" height="100" relative="1" as="geometry">
            <mxPoint x="320" y="189.99999999999991" as="sourcePoint" />
            <mxPoint x="380" y="279.99999999999994" as="targetPoint" />
          </mxGeometry>
        </mxCell>
        <mxCell id="146" value="" style="edgeStyle=none;exitX=0.5;exitY=0;strokeWidth=3" parent="1" edge="1">
          <mxGeometry width="100" height="100" relative="1" as="geometry">
            <mxPoint x="320.0000000000001" y="399.99999999999994" as="sourcePoint" />
            <mxPoint x="380" y="279.99999999999994" as="targetPoint" />
          </mxGeometry>
        </mxCell>
        <mxCell id="148" value="" style="edgeStyle=none;endArrow=none;strokeWidth=2" parent="1" edge="1">
          <mxGeometry width="100" height="100" relative="1" as="geometry">
            <mxPoint x="290" y="225.99999999999991" as="sourcePoint" />
            <mxPoint x="349.9999999999999" y="225.99999999999991" as="targetPoint" />
          </mxGeometry>
        </mxCell>
        <mxCell id="150" value="" style="edgeStyle=none;endArrow=none;strokeWidth=2" parent="1" edge="1">
          <mxGeometry width="100" height="100" relative="1" as="geometry">
            <mxPoint x="330" y="189.99999999999991" as="sourcePoint" />
            <mxPoint x="390" y="189.99999999999991" as="targetPoint" />
          </mxGeometry>
        </mxCell>
        <mxCell id="152" value="" style="edgeStyle=none;endArrow=none;strokeWidth=2" parent="1" edge="1">
          <mxGeometry width="100" height="100" relative="1" as="geometry">
            <mxPoint x="370.0000000000001" y="259.99999999999994" as="sourcePoint" />
            <mxPoint x="430" y="259.99999999999994" as="targetPoint" />
          </mxGeometry>
        </mxCell>
        <mxCell id="153" value="" style="edgeStyle=none;endArrow=none;strokeWidth=2" parent="1" edge="1">
          <mxGeometry width="100" height="100" relative="1" as="geometry">
            <mxPoint x="310" y="299.99999999999994" as="sourcePoint" />
            <mxPoint x="370.0000000000001" y="299.99999999999994" as="targetPoint" />
          </mxGeometry>
        </mxCell>
        <mxCell id="155" value="" style="edgeStyle=none;endArrow=none;strokeWidth=2" parent="1" edge="1">
          <mxGeometry width="100" height="100" relative="1" as="geometry">
            <mxPoint x="270.0000000000001" y="379.99999999999994" as="sourcePoint" />
            <mxPoint x="330" y="379.99999999999994" as="targetPoint" />
          </mxGeometry>
        </mxCell>
        <mxCell id="157" value="" style="edgeStyle=none;endArrow=none;strokeWidth=2" parent="1" edge="1">
          <mxGeometry width="100" height="100" relative="1" as="geometry">
            <mxPoint x="349.9999999999999" y="339.99999999999994" as="sourcePoint" />
            <mxPoint x="410" y="339.99999999999994" as="targetPoint" />
          </mxGeometry>
        </mxCell>
        <mxCell id="179" value="Detail" style="text;spacingTop=-5;fontSize=8;align=center;verticalAlign=middle;points=[]" parent="1" vertex="1">
          <mxGeometry x="280" y="290.00000000000017" width="30" height="19.999999999999886" as="geometry" />
        </mxCell>
        <mxCell id="181" value="Detail" style="text;spacingTop=-5;fontSize=8;align=center;verticalAlign=middle;points=[]" parent="1" vertex="1">
          <mxGeometry x="240.0000000000001" y="380.00000000000017" width="30" height="19.999999999999886" as="geometry" />
        </mxCell>
        <mxCell id="198" value="Detail" style="text;spacingTop=-5;fontSize=8;align=center;verticalAlign=middle;points=[]" parent="1" vertex="1">
          <mxGeometry x="389.5833333333333" y="180.9722222222222" width="30" height="19.999999999999886" as="geometry" />
        </mxCell>
        <mxCell id="199" value="Detail" style="text;spacingTop=-5;fontSize=8;align=center;verticalAlign=middle;points=[]" parent="1" vertex="1">
          <mxGeometry x="298.06" y="210.97" width="30" height="19.03" as="geometry" />
        </mxCell>
        <mxCell id="200" value="Detail" style="text;spacingTop=-5;fontSize=8;align=center;verticalAlign=middle;points=[]" parent="1" vertex="1">
          <mxGeometry x="429.5833333333333" y="260.9722222222223" width="30" height="19.999999999999886" as="geometry" />
        </mxCell>
        <mxCell id="204" value="Equipment" style="whiteSpace=wrap;strokeWidth=2" parent="1" vertex="1">
          <mxGeometry x="475.8333333333331" y="111.52777777777752" width="120" height="60" as="geometry" />
        </mxCell>
        <mxCell id="205" value="Cause 6" style="whiteSpace=wrap;strokeWidth=2" parent="1" vertex="1">
          <mxGeometry x="475.8333333333331" y="401.52777777777754" width="120" height="60" as="geometry" />
        </mxCell>
        <mxCell id="206" value="" style="edgeStyle=none;exitX=0.5;exitY=1;strokeWidth=3" parent="1" source="204" edge="1">
          <mxGeometry width="100" height="100" relative="1" as="geometry">
            <mxPoint x="535.8333333333331" y="191.52777777777752" as="sourcePoint" />
            <mxPoint x="595.8333333333331" y="281.52777777777754" as="targetPoint" />
          </mxGeometry>
        </mxCell>
        <mxCell id="207" value="" style="edgeStyle=none;exitX=0.5;exitY=0;strokeWidth=3" parent="1" edge="1">
          <mxGeometry width="100" height="100" relative="1" as="geometry">
            <mxPoint x="535.8333333333333" y="401.52777777777754" as="sourcePoint" />
            <mxPoint x="595.8333333333331" y="281.52777777777754" as="targetPoint" />
          </mxGeometry>
        </mxCell>
        <mxCell id="208" value="" style="edgeStyle=none;endArrow=none;strokeWidth=2" parent="1" edge="1">
          <mxGeometry width="100" height="100" relative="1" as="geometry">
            <mxPoint x="485.8333333333332" y="191.52777777777752" as="sourcePoint" />
            <mxPoint x="545.8333333333331" y="191.52777777777752" as="targetPoint" />
          </mxGeometry>
        </mxCell>
        <mxCell id="212" value="" style="edgeStyle=none;endArrow=none;strokeWidth=2" parent="1" edge="1">
          <mxGeometry width="100" height="100" relative="1" as="geometry">
            <mxPoint x="565.833333333333" y="227.52777777777752" as="sourcePoint" />
            <mxPoint x="625.8333333333331" y="227.52777777777752" as="targetPoint" />
          </mxGeometry>
        </mxCell>
        <mxCell id="214" value="" style="edgeStyle=none;endArrow=none;strokeWidth=2" parent="1" edge="1">
          <mxGeometry width="100" height="100" relative="1" as="geometry">
            <mxPoint x="525.8333333333331" y="301.52777777777754" as="sourcePoint" />
            <mxPoint x="585.8333333333333" y="301.52777777777754" as="targetPoint" />
          </mxGeometry>
        </mxCell>
        <mxCell id="216" value="" style="edgeStyle=none;endArrow=none;strokeWidth=2" parent="1" edge="1">
          <mxGeometry width="100" height="100" relative="1" as="geometry">
            <mxPoint x="485.8333333333332" y="381.52777777777754" as="sourcePoint" />
            <mxPoint x="545.8333333333331" y="381.52777777777754" as="targetPoint" />
          </mxGeometry>
        </mxCell>
        <mxCell id="218" value="" style="edgeStyle=none;endArrow=none;strokeWidth=2" parent="1" edge="1">
          <mxGeometry width="100" height="100" relative="1" as="geometry">
            <mxPoint x="565.833333333333" y="341.52777777777754" as="sourcePoint" />
            <mxPoint x="625.8333333333331" y="341.52777777777754" as="targetPoint" />
          </mxGeometry>
        </mxCell>
        <mxCell id="225" value="" style="edgeStyle=none;endArrow=none;" parent="1" edge="1">
          <mxGeometry width="100" height="100" relative="1" as="geometry">
            <mxPoint x="605.3510802469133" y="227.89737654320962" as="sourcePoint" />
            <mxPoint x="625.3510802469135" y="207.8973765432095" as="targetPoint" />
          </mxGeometry>
        </mxCell>
        <mxCell id="237" value="Good EquipmentÂ " style="text;spacingTop=-5;fontSize=8;align=center;verticalAlign=middle;points=[]" parent="1" vertex="1">
          <mxGeometry x="488.8933333333331" y="175.41777777777756" width="30" height="19.999999999999886" as="geometry" />
        </mxCell>
        <mxCell id="240" value="Detail" style="text;spacingTop=-5;fontSize=8;align=center;verticalAlign=middle;points=[]" parent="1" vertex="1">
          <mxGeometry x="495.8333333333331" y="291.52777777777777" width="30" height="19.999999999999886" as="geometry" />
        </mxCell>
        <mxCell id="242" value="Detail" style="text;spacingTop=-5;fontSize=8;align=center;verticalAlign=middle;points=[]" parent="1" vertex="1">
          <mxGeometry x="455.8333333333332" y="381.52777777777777" width="30" height="19.999999999999886" as="geometry" />
        </mxCell>
        <mxCell id="252" value="Sub-detail" style="text;spacingTop=-5;fontSize=6;align=center;verticalAlign=middle;points=[]" parent="1" vertex="1">
          <mxGeometry x="475.83000000000004" y="210.96999999999997" width="30" height="24.58" as="geometry" />
        </mxCell>
        <mxCell id="260" value="Detail" style="text;spacingTop=-5;fontSize=8;align=center;verticalAlign=middle;points=[]" parent="1" vertex="1">
          <mxGeometry x="625.42" y="220" width="30" height="22.5" as="geometry" />
        </mxCell>
        <mxCell id="263" value="Detail" style="text;spacingTop=-5;fontSize=8;align=center;verticalAlign=middle;points=[]" parent="1" vertex="1">
          <mxGeometry x="625.4166666666664" y="342.4999999999996" width="30" height="19.999999999999886" as="geometry" />
        </mxCell>
        <mxCell id="Vh0nj2LcidCq0PupVse_-268" value="Sub-detail" style="text;spacingTop=-5;fontSize=6;align=center;verticalAlign=middle;points=[]" vertex="1" parent="1">
          <mxGeometry x="289.9999999999999" y="242.5" width="30" height="18.47" as="geometry" />
        </mxCell>
        <mxCell id="Vh0nj2LcidCq0PupVse_-274" value="" style="edgeStyle=none;endArrow=none;" edge="1" parent="1">
          <mxGeometry width="100" height="100" relative="1" as="geometry">
            <mxPoint x="493.89108024691313" y="210.9673765432096" as="sourcePoint" />
            <mxPoint x="513.8910802469136" y="190.9673765432095" as="targetPoint" />
          </mxGeometry>
        </mxCell>
        <mxCell id="Vh0nj2LcidCq0PupVse_-276" value="Sub-detail" style="text;spacingTop=-5;fontSize=6;align=center;verticalAlign=middle;points=[]" vertex="1" parent="1">
          <mxGeometry x="625.42" y="186.38999999999996" width="30" height="24.58" as="geometry" />
        </mxCell>
      </root>
    </mxGraphModel>
  </diagram>
</mxfile>
